<?xml version="1.0" encoding="utf-8"?>
<svg xmlns="http://www.w3.org/2000/svg" viewBox="389.7 260.0 525.1 525.1">
  <style>
    .n { fill: #0E0E0E; }
    @media (prefers-color-scheme: dark) { .n { fill: #FFFFFF; } }
  </style>
  <path class="n" d="M485.876 298.397C505.818 295.157 530.184 303.278 543.749 318.183C551.799 327.028 558.664 337.485 565.541 347.295L597.582 393.428C629.127 439.154 662.493 486.353 693.113 532.455L693.088 398.93L693.078 357.332C693.079 347.525 690.718 330.384 698.752 324.009C702.184 321.333 706.566 320.187 710.869 320.842C715.023 321.427 718.726 323.768 721.036 327.27C722.882 330.081 723.691 333.409 723.724 336.729C723.906 355.472 723.772 374.405 723.747 393.134L723.727 500.82L723.748 554.816C723.775 571.325 727.378 607.964 697.375 591.46C693.734 589.457 670.288 554.326 666.251 548.513L564.785 401.18L538.591 363.423C527.545 347.512 519.979 331.418 498.932 329.01C479.259 326.759 460.274 339.503 457.485 359.537C455.645 372.753 456.704 389.25 456.719 402.766L456.708 487.305L456.688 619.754L456.647 662.246C456.641 670.135 456.771 677.959 456.861 685.835C457.132 709.592 484.269 726.124 504.335 710.931C509.908 706.634 513.838 700.554 515.469 693.708C517.415 685.261 516.769 657.021 516.764 646.878L516.761 527.301C516.818 517.541 516.798 507.78 516.701 498.02C516.597 485.382 513.701 462.958 535.6 464.928C543.823 465.668 551.983 479.546 556.79 486.359L660.781 629.04L694.671 675.875C700.786 684.323 706.736 692.986 713.389 701.003C727.053 717.47 755.475 721.902 771.722 706.786C776.763 702.063 780.269 695.934 781.786 689.195C784.225 678.174 783.002 651.269 783.221 639.052C783.875 602.52 782.255 564.305 783.416 527.868C795.058 525.798 800.647 523.538 811.311 518.655C815.408 529.147 814.062 548.603 814.08 560.525L814.083 617.145L814.079 658.204C814.071 669.01 814.41 679.181 812.887 689.933C804.672 747.921 736.363 764.356 695.374 727.332C686.603 719.409 679.962 708.85 673.005 699.307L643.501 658.629L547.473 526.714L547.429 638.615C547.439 652.109 548.277 684.224 546.273 696.208C544.622 706.057 540.713 715.391 534.853 723.478C525.714 735.999 511.936 744.333 496.604 746.613C480.788 748.999 465.137 745.949 452.178 736.376C438.272 726.043 429.104 710.552 426.737 693.389C425.343 683.413 426.044 653.968 426.057 642.247L426.052 542.783L426.013 420.096L426.01 382.993C426.013 375.223 425.828 364.371 426.766 356.817C428.26 345.034 432.825 333.85 440.003 324.387C451.631 309.094 467.041 300.916 485.876 298.397Z"/>
  <path fill="#6E23D7" d="M809.777 298.445C823.32 297.453 841.688 302.85 851.151 311.441C914.241 368.727 857.967 472.37 790.842 498.932C784.594 501.404 782.387 502.577 775.877 501.907C764.391 496.562 765.715 487.043 774.809 479.936C777.818 477.584 781.037 475.076 783.967 472.625C787.554 469.586 790.931 466.307 794.073 462.81C798.211 458.228 817.541 434.247 807.347 426.085C806.295 425.243 798.448 423.768 796.398 423.325C786.587 421.203 777.366 416.237 769.745 409.743C757.325 399.229 749.598 384.205 748.271 367.986C745.285 330.227 772.545 301.073 809.777 298.445Z"/>
</svg>
